<?xml version="1.0" encoding="utf-8"?>
<!-- Generator: Adobe Illustrator 22.1.0, SVG Export Plug-In . SVG Version: 6.00 Build 0)  -->
<svg version="1.1" id="Слой_1" xmlns="http://www.w3.org/2000/svg" xmlns:xlink="http://www.w3.org/1999/xlink" x="0px" y="0px"
	 viewBox="0 0 136.7 136.5" style="enable-background:new 0 0 136.7 136.5;" xml:space="preserve">
<g>
	<g>
		<defs>
			<path id="SVGID_1_" d="M22.7,0C46,0,69.2,0,92.5,0c5.2,0,10.4,0,15.6,0c3.3,0,6.6-0.2,9.4,0.4c3.7,0.8,7,2.6,9.7,4.5
				c10.8,7.9,9.7,18.9,9.7,37.6c0,17.8,0,35.6,0,53.3c0,16.8,0.9,27-8.7,34.6c-3,2.4-6.7,4.2-11,5.3c-3.4,0.9-8,0.4-11.9,0.4
				c-7.5,0-15,0-22.5,0c-14.3,0-28.6,0-42.8,0c-5.7,0-16,0.8-20.3-0.5c-7.4-2.3-11.3-5.7-15.6-10.9c-3.9-4.8-3.6-13-3.6-21.6
				c0-2.3-0.1-4.5-0.1-6.8c0-18.9,0.1-37.8,0.1-56.7c0-6.5-0.8-15.2,0.5-20.9c0.5-2.3,1.6-4.5,2.6-6.5c2.4-5,7.7-8.9,13-11
				C18.2,0.7,20.7,0.9,22.7,0L22.7,0z M126.7,4.1c0.1,0,0.2,0,0.3,0c0,0,0,0.1,0,0.1c0,0,0,0.1,0,0.1C126.7,4.2,126.6,4.4,126.7,4.1
				L126.7,4.1z M130.5,4.3c0.1,0,0.1,0,0.2,0c-0.1,0.1-0.1,0.1-0.2,0.2C130.5,4.4,130.5,4.3,130.5,4.3L130.5,4.3z M135.9,15.9
				c0,0.1,0.1,0.1,0.1,0.2C136,16,135.9,15.9,135.9,15.9L135.9,15.9z M1.8,121.7c0,0.1,0.1,0.2,0.1,0.3c0,0-0.1,0-0.1,0
				C1.8,121.9,1.8,121.8,1.8,121.7L1.8,121.7z M133.6,124.4c0.1,0.1,0.1,0.1,0.2,0.2c-0.1,0-0.2,0.1-0.3,0.1
				C133.6,124.6,133.6,124.5,133.6,124.4L133.6,124.4z M5.2,127.3c0.3,0.2,0.2,0.1,0.3,0.6c0,0-0.1,0-0.1,0c0,0-0.1,0-0.1,0
				C5.3,127.7,5.2,127.5,5.2,127.3L5.2,127.3z M128.6,130.5c0,0.1,0.1,0.1,0.1,0.2C128.7,130.6,128.6,130.5,128.6,130.5L128.6,130.5
				z M125.4,133c-0.1,0.1,0,0.2-0.2,0.1C125.2,133.1,125.3,133,125.4,133L125.4,133z M12.3,133.2c0,0.1,0.1,0.1,0.1,0.2
				C12.3,133.3,12.3,133.3,12.3,133.2L12.3,133.2z M13.1,134.2c0.1,0,0.1,0,0.2,0C13.2,134.2,13.1,134.2,13.1,134.2L13.1,134.2z"/>
		</defs>
		<clipPath id="SVGID_2_">
			<use xlink:href="#SVGID_1_"  style="overflow:visible;"/>
		</clipPath>
		<g style="clip-path:url(#SVGID_2_);">
			
				<image style="overflow:visible;" width="591" height="600" xlink:href="1B759E7BBCE53EF5.jpg"  transform="matrix(0.24 0 0 0.24 -2.9873 -4.295)">
			</image>
		</g>
	</g>
</g>
</svg>
