<svg xmlns="http://www.w3.org/2000/svg" viewBox="0 0 134.7 389.1">
  <path id="wiggle_bg"
        d="M79.72,0a101.5,101.5,0,0,1,11,12.6c4.23,5.77,10.47,14.28,8,18.3a4.17,4.17,0,0,1-2.45,1.88A19.78,19.78,0,0,1,87,32.25c-4.23-1.09-9.23-2.33-13.47-3.38-12.26-3-17.68-4.44-25.19-3.37-5.78.82-11.62,1.2-18.4,7.28a11.44,11.44,0,0,0-3.39,5.32C23.81,48,21.81,55.15,24,63c.81,3,2.29,7.06,5,8.15A34.63,34.63,0,0,0,40.86,74c1.06,0,3.36-.22,7.92-.67,3-.3,6.19-.58,8.65-.9C71.9,70.47,87.73,68,87.73,68a257.23,257.23,0,0,1,27.56-3.07c3.32-.22,7.77-.62,11.39,1.35,1.93,1,2.07,3.91,2,8.17-.07,5.91-.12,21-10,27a20.12,20.12,0,0,1-11,3c-34.28-.35-47.54-1.55-57.64-2.92-1.21-.17-9.6-1.29-18.53-2-5.92-.44-8-.15-10,.52-1.46.51-9.25,3-10.75,9.6a10.09,10.09,0,0,0,1.09,7.5c2.28,4,5,8.43,29.93,19,12.78,5.41,17.88,6.35,22.51,7,6.89.93,12.14,1,14.21.52,9.23-2.17,15.07-4.5,22.43-5.84,0,0,25-7,32.53-2.48a3.14,3.14,0,0,1,1.23,3.08,12.59,12.59,0,0,1-2.55,6.46c-7.27,10.57-14.84,18.69-22.34,21.21a33,33,0,0,1-4,1.27c-9.3,1-16.23,1.26-21.4,1.36-4.45.08-9.41,0-12.16-.11-5.53-.13-9.72-.35-11.46-.45-4.78-.26-7.29-.44-10.23-.72-10.34-1-14.14-1.87-21.93-3-3.81-.55-6.43.56-9.23,3.3-3.41,3.33-3.69,8.15-3.75,9.3a16,16,0,0,0,2,8.7h0s3.28,5.07,7.14,6.08S33,194.39,36.59,195c10.68,1.81,17.24,2.62,25.24,1.65,6.8-.83,7.44-.18,21-.75h0S96.16,195,118,199.2c2.26.43,7.58,1.55,11,6a14.81,14.81,0,0,1,2.6,5.7,15.78,15.78,0,0,1-.87,9,19.38,19.38,0,0,1-3.75,6c-4,4.58-8.34,7-10.1,7.5C108,235.92,87.75,243,69.53,240c-14.33-2.35-16.35-2.18-33.09-2.41,0,0-9-.72-21.71,2.4-4,1-7,3.67-9.67,6.22A15.57,15.57,0,0,0,0,256.5c-.2,2,1.37,8.3,5.55,13.28,2,2.34,1.2,2.74,6.49,4.94a46,46,0,0,0,13.06,3.6c3.94.61,3.36,1.42,17.83.59,8.87-.51,15.79-1.44,30.43-2.38.39,0,5.26-.32,11.32-.6,12.49-.59,15.9-.06,20,1a29.1,29.1,0,0,1,9.53,3.9c2.6,1.69,7.67,5,8.94,10.8.43,2,.27,3.53,0,6.3-.3,3-.61,6.14-2.6,8.7a10.82,10.82,0,0,1-4.61,3.3c-11.28,4.87-19.26,5.25-19.26,5.25-4.77.69-14.21,2.16-32.54,1.57a119.74,119.74,0,0,1-19.4-2c-3.39-.52-7.17-2-13.06-3.3-3.56-.81-6.26-.58-9.52-.6-7,0-9.07,1.52-9.74,1.88a12.17,12.17,0,0,0-5,4.42,16.5,16.5,0,0,0-2,11.1c.74,4.43,3.11,7.16,5.48,9.9a19,19,0,0,0,8.3,5.47c1.8.66,2.24.81,9.3,1.43,6.8.59,5.27.84,11.69.9,7.88.07,7.63.36,11.54.53,5.82.24,10.93.36,14.06,1,5.1,1,6.76.93,9.16,2.7,3.13,2.3,4.28,5.34,5.41,7.58a35.41,35.41,0,0,1,3.19,11.72c.28,2,.1,1,.93,8.45.51,4.72.51,6.68.79,11.25"/>

  <path id="wiggle"
            d="M79.72,0a101.5,101.5,0,0,1,11,12.6c4.23,5.77,10.47,14.28,8,18.3a4.17,4.17,0,0,1-2.45,1.88A19.78,19.78,0,0,1,87,32.25c-4.23-1.09-9.23-2.33-13.47-3.38-12.26-3-17.68-4.44-25.19-3.37-5.78.82-11.62,1.2-18.4,7.28a11.44,11.44,0,0,0-3.39,5.32C23.81,48,21.81,55.15,24,63c.81,3,2.29,7.06,5,8.15A34.63,34.63,0,0,0,40.86,74c1.06,0,3.36-.22,7.92-.67,3-.3,6.19-.58,8.65-.9C71.9,70.47,87.73,68,87.73,68a257.23,257.23,0,0,1,27.56-3.07c3.32-.22,7.77-.62,11.39,1.35,1.93,1,2.07,3.91,2,8.17-.07,5.91-.12,21-10,27a20.12,20.12,0,0,1-11,3c-34.28-.35-47.54-1.55-57.64-2.92-1.21-.17-9.6-1.29-18.53-2-5.92-.44-8-.15-10,.52-1.46.51-9.25,3-10.75,9.6a10.09,10.09,0,0,0,1.09,7.5c2.28,4,5,8.43,29.93,19,12.78,5.41,17.88,6.35,22.51,7,6.89.93,12.14,1,14.21.52,9.23-2.17,15.07-4.5,22.43-5.84,0,0,25-7,32.53-2.48a3.14,3.14,0,0,1,1.23,3.08,12.59,12.59,0,0,1-2.55,6.46c-7.27,10.57-14.84,18.69-22.34,21.21a33,33,0,0,1-4,1.27c-9.3,1-16.23,1.26-21.4,1.36-4.45.08-9.41,0-12.16-.11-5.53-.13-9.72-.35-11.46-.45-4.78-.26-7.29-.44-10.23-.72-10.34-1-14.14-1.87-21.93-3-3.81-.55-6.43.56-9.23,3.3-3.41,3.33-3.69,8.15-3.75,9.3a16,16,0,0,0,2,8.7h0s3.28,5.07,7.14,6.08S33,194.39,36.59,195c10.68,1.81,17.24,2.62,25.24,1.65,6.8-.83,7.44-.18,21-.75h0S96.16,195,118,199.2c2.26.43,7.58,1.55,11,6a14.81,14.81,0,0,1,2.6,5.7,15.78,15.78,0,0,1-.87,9,19.38,19.38,0,0,1-3.75,6c-4,4.58-8.34,7-10.1,7.5C108,235.92,87.75,243,69.53,240c-14.33-2.35-16.35-2.18-33.09-2.41,0,0-9-.72-21.71,2.4-4,1-7,3.67-9.67,6.22A15.57,15.57,0,0,0,0,256.5c-.2,2,1.37,8.3,5.55,13.28,2,2.34,1.2,2.74,6.49,4.94a46,46,0,0,0,13.06,3.6c3.94.61,3.36,1.42,17.83.59,8.87-.51,15.79-1.44,30.43-2.38.39,0,5.26-.32,11.32-.6,12.49-.59,15.9-.06,20,1a29.1,29.1,0,0,1,9.53,3.9c2.6,1.69,7.67,5,8.94,10.8.43,2,.27,3.53,0,6.3-.3,3-.61,6.14-2.6,8.7a10.82,10.82,0,0,1-4.61,3.3c-11.28,4.87-19.26,5.25-19.26,5.25-4.77.69-14.21,2.16-32.54,1.57a119.74,119.74,0,0,1-19.4-2c-3.39-.52-7.17-2-13.06-3.3-3.56-.81-6.26-.58-9.52-.6-7,0-9.07,1.52-9.74,1.88a12.17,12.17,0,0,0-5,4.42,16.5,16.5,0,0,0-2,11.1c.74,4.43,3.11,7.16,5.48,9.9a19,19,0,0,0,8.3,5.47c1.8.66,2.24.81,9.3,1.43,6.8.59,5.27.84,11.69.9,7.88.07,7.63.36,11.54.53,5.82.24,10.93.36,14.06,1,5.1,1,6.76.93,9.16,2.7,3.13,2.3,4.28,5.34,5.41,7.58a35.41,35.41,0,0,1,3.19,11.72c.28,2,.1,1,.93,8.45.51,4.72.51,6.68.79,11.25"/>
  </svg>
