<?xml version="1.0" encoding="utf-8"?><!DOCTYPE svg PUBLIC "-//W3C//DTD SVG 1.1//EN" "http://www.w3.org/Graphics/SVG/1.1/DTD/svg11.dtd"><svg version="1.1" id="Calque_1" xmlns="http://www.w3.org/2000/svg" xmlns:xlink="http://www.w3.org/1999/xlink" x="0px" y="0px" width="87.874px" height="87.876px" viewBox="0 0 87.874 87.876" enable-background="new 0 0 87.874 87.876" xml:space="preserve"><path fill="#FFFFFF" d="M67.953,15.874c-0.646-0.552-1.312-1.084-1.994-1.593c-3-2.231-6.35-4.015-9.949-5.26c-0.867-0.301-1.749-0.569-2.644-0.805C50.355,7.425,47.196,7,43.937,7C23.537,7,7,23.538,7,43.937c0,9.358,3.48,17.9,9.215,24.408c0.591,0.672,1.206,1.321,1.846,1.948c6.663,6.545,15.798,10.583,25.875,10.583c11.879,0,22.445-5.609,29.204-14.321c0.687-0.888,1.338-1.807,1.943-2.757c3.665-5.735,5.79-12.549,5.79-19.861C80.874,32.708,75.861,22.649,67.953,15.874z"/><g><path fill="#6FE4D0" d="M20.38,39.865c-5.379-10.012-7.441-17.287-6.136-21.695c0.667-2.25,2.222-3.846,4.497-4.613c2.964-1.003,4.572,0.497,5.268,1.479c2.666,3.769,1.578,13.816-0.643,24.375c5.712,10.4,13.766,21.682,18.772,28.169c5.607-9.626,14.476-26.007,21.307-41.629c-3.671-9.159-6.833-17.56-8.292-24.503C51.572,0.505,47.813,0,43.937,0C19.671,0,0,19.672,0,43.937C0,55.067,4.14,65.229,10.962,72.97c1.439-4.239,2.85-8.635,4.16-13.019C17.342,52.52,19.105,45.75,20.38,39.865z M37.304,28.237h14.285v3.07H40.676v5.237h9.679v3.071h-9.679v7.813h-3.372V28.237z"/><path fill="#6FE4D0" d="M68.503,30.927c5.154,12.708,10.427,25.714,12.484,36.635c4.359-6.822,6.887-14.927,6.887-23.625c0-13.357-5.963-25.321-15.37-33.381c-1.509,4.6-3.501,9.759-5.979,15.479C67.179,27.665,67.842,29.297,68.503,30.927z"/><path fill="#6FE4D0" d="M20.593,16.049c-0.255,0-0.565,0.054-0.949,0.184c-1.425,0.48-2.281,1.351-2.691,2.739c-1.06,3.576,0.938,9.65,4.328,16.461c1.838-9.777,2.045-16.474,0.423-18.766C21.483,16.355,21.198,16.049,20.593,16.049z"/><path fill="#6FE4D0" d="M65.022,22.269c1.985-4.736,3.738-9.343,5.11-13.607c-3.569-2.654-7.553-4.776-11.835-6.257C59.697,8.249,62.212,15.141,65.022,22.269z"/><path fill="#6FE4D0" d="M64.933,29.637c-0.847,1.88-1.74,3.815-2.685,5.806C53.5,53.912,43.617,70.638,43.519,70.805l-1.047,1.767l-1.273-1.611c-0.077-0.098-7.762-9.832-14.875-21.026c-1.412-2.222-2.705-4.348-3.877-6.374C21,49.762,19.285,55.881,17.828,60.758c-1.476,4.937-3.061,9.849-4.671,14.529c7.926,7.785,18.792,12.589,30.779,12.589c14.13,0,26.699-6.672,34.738-17.035c-1.521-11.064-7.226-25.136-12.789-38.854C65.566,31.199,65.249,30.417,64.933,29.637z"/><path fill="#FFFFFF" d="M68.503,30.927c-0.661-1.63-1.324-3.262-1.979-4.892c2.479-5.721,4.471-10.88,5.979-15.479c-0.769-0.657-1.56-1.29-2.371-1.895c-1.372,4.265-3.125,8.871-5.11,13.607c-2.811-7.128-5.325-14.02-6.725-19.864c-1.031-0.357-2.08-0.677-3.145-0.957c1.459,6.943,4.621,15.344,8.292,24.503c-6.831,15.622-15.699,32.003-21.307,41.629c-5.007-6.487-13.061-17.769-18.772-28.169c2.221-10.559,3.309-20.606,0.643-24.375c-0.695-0.981-2.304-2.481-5.268-1.479c-2.275,0.768-3.83,2.363-4.497,4.613c-1.306,4.408,0.757,11.684,6.136,21.695c-1.274,5.885-3.038,12.654-5.258,20.086c-1.311,4.384-2.721,8.779-4.16,13.019c0.703,0.799,1.435,1.571,2.195,2.317c1.61-4.681,3.195-9.593,4.671-14.529C19.285,55.881,21,49.762,22.446,43.56c1.172,2.026,2.465,4.152,3.877,6.374c7.113,11.194,14.798,20.929,14.875,21.026l1.273,1.611l1.047-1.767c0.099-0.167,9.981-16.893,18.729-35.362c0.944-1.99,1.838-3.926,2.685-5.806c0.316,0.78,0.634,1.562,0.953,2.351c5.563,13.718,11.268,27.789,12.789,38.854c0.817-1.056,1.592-2.149,2.312-3.279C78.93,56.641,73.657,43.635,68.503,30.927z M21.28,35.433c-3.39-6.811-5.388-12.885-4.328-16.461c0.41-1.389,1.267-2.259,2.691-2.739c0.384-0.13,0.694-0.184,0.949-0.184c0.605,0,0.891,0.307,1.11,0.618C23.325,18.959,23.118,25.655,21.28,35.433z"/><polygon fill="#FFFFFF" points="40.676,39.616 50.354,39.616 50.354,36.545 40.676,36.545 40.676,31.308 51.589,31.308 51.589,28.237 37.304,28.237 37.304,47.43 40.676,47.43 "/></g></svg>